  0
SECTION
  2
HEADER
  9
$ACADVER
  1
AC1009
  9
$INSBASE
  10
0.0
  20
0.0
  30
0.0
  9
$EXTMIN
  10
0.0
  20
0.0
  30
0.0
  9
$EXTMAX
  10
20
  20
20
  30
0.0
  9
$LIMMIN
  10
0.0
  20
0.0
  9
$LIMMAX
  10
20
  20
20
  9
$ORTHOMODE
 70
     1
  9
$REGENMODE
 70
     1
  9
$FILLMODE
 70
     1
  9
$QTEXTMODE
 70
     0
  9
$MIRRTEXT
 70
     0
  9
$DRAGMODE
 70
     2
  9
$LTSCALE
 40
1.0
  9
$OSMODE
 70
     0
  9
$ATTMODE
 70
     1
  9
$TEXTSIZE
 40
0.2
  9
$TRACEWID
 40
0.05
  9
$TEXTSTYLE
  7
STANDARD
  9
$CLAYER
  8
0
  9
$CELTYPE
  6
BYLAYER
  9
$CECOLOR
 62
   256
  9
$DIMSCALE
 40
1.0
  9
$DIMASZ
 40
0.0
  9
$DIMEXO
 40
0.125
  9
$DIMDLI
 40
0.0
  9
$DIMRND
 40
0.0
  9
$DIMDLE
 40
0.125
  9
$DIMEXE
 40
0.125
  9
$DIMTP
 40
0.0
  9
$DIMTM
 40
0.0
  9
$DIMTXT
 40
0.125
  9
$DIMCEN
 40
0.09
  9
$DIMTSZ
 40
0.05
  9
$DIMTOL
 70
     0
  9
$DIMLIM
 70
     0
  9
$DIMTIH
 70
     0
  9
$DIMTOH
 70
     0
  9
$DIMSE1
 70
     0
  9
$DIMSE2
 70
     0
  9
$DIMTAD
 70
     1
  9
$DIMZIN
 70
     0
  9
$DIMBLK
  1

  9
$DIMASO
 70
     1
  9
$DIMSHO
 70
     1
  9
$DIMPOST
  1

  9
$DIMAPOST
  1

  9
$DIMALT
 70
     0
  9
$DIMALTD
 70
     2
  9
$DIMALTF
 40
25.4
  9
$DIMLFAC
 40
1.0
  9
$DIMTOFL
 70
     0
  9
$DIMTVP
 40
0.0
  9
$DIMTIX
 70
     0
  9
$DIMSOXD
 70
     0
  9
$DIMSAH
 70
     0
  9
$DIMBLK1
  1

  9
$DIMBLK2
  1

  9
$LUNITS
 70
     2
  9
$LUPREC
 70
     4
  9
$AXISMODE
 70
     0
  9
$AXISUNIT
 10
0.0
 20
0.0
  9
$SKETCHINC
 40
0.1
  9
$FILLETRAD
 40
0.0
  9
$AUNITS
 70
     0
  9
$AUPREC
 70
     0
  9
$MENU
  1
acad
  9
$ELEVATION
 40
0.0
  9
$THICKNESS
 40
0.0
  9
$LIMCHECK
 70
     0
  9
$BLIPMODE
 70
     1
  9
$CHAMFERA
 40
0.0
  9
$CHAMFERB
 40
0.0
  9
$SKPOLY
 70
     0
  9
$TDCREATE
 40
2449760.6321530091
  9
$TDUPDATE
 40
2449760.6321530091
  9
$TDINDWG
 40
0.0000000000
  9
$TDUSRTIMER
 40
0.0000000000
  9
$USRTIMER
 70
     1
  9
$ANGBASE
 50
0.0
  9
$ANGDIR
 70
     0
  9
$PDMODE
 70
     0
  9
$PDSIZE
 40
0.0
  9
$PLINEWID
 40
0.0
  9
$COORDS
 70
     2
  9
$SPLFRAME
 70
     0
  9
$SPLINETYPE
 70
     6
  9
$SPLINESEGS
 70
     8
  9
$ATTDIA
 70
     0
  9
$ATTREQ
 70
     1
  9
$HANDLING
 70
     0
  9
$HANDSEED
  5
0
  9
$SURFTAB1
 70
     6
  9
$SURFTAB2
 70
     6
  9
$SURFTYPE
 70
     6
  9
$SURFU
 70
     6
  9
$SURFV
 70
     6
  9
$FLATLAND
 70
     1
  9
$UCSNAME
  2

  9
$UCSORG
 10
0.0
 20
0.0
 30
0.0
  9
$UCSXDIR
 10
1.0
 20
0.0
 30
0.0
  9
$UCSYDIR
 10
0.0
 20
1.0
 30
0.0
  9
$USERI1
 70
     0
  9
$USERI2
 70
     0
  9
$USERI3
 70
     0
  9
$USERI4
 70
     0
  9
$USERI5
 70
     0
  9
$USERR1
 40
0.0
  9
$USERR2
 40
0.0
  9
$USERR3
 40
0.0
  9
$USERR4
 40
0.0
  9
$USERR5
 40
0.0
  9
$WORLDVIEW
 70
     1
  9
$VIEWCTR
 10
2.281323
 20
14.37967
  9
$VIEWSIZE
 40
18.0
  9
$SNAPMODE
 70
     0
  9
$SNAPUNIT
 10
0.05
 20
0.05
  9
$SNAPBASE
 10
0.0
 20
0.0
  9
$SNAPANG
 50
0.0
  9
$SNAPSTYLE
 70
     0
  9
$SNAPISOPAIR
 70
     0
  9
$GRIDMODE
 70
     0
  9
$GRIDUNIT
 10
0.0
 20
0.0
  9
$FASTZOOM
 70
     1
  9
$VIEWDIR
 10
0.0
 20
0.0
 30
1.0
  0
ENDSEC
  0
SECTION
  2
TABLES
  0
TABLE
  2
LTYPE
 70
    25
  0
LTYPE
  2
CONTINUOUS
 70
    0
  3
Solid line
 72
    65
 73
    0
 40
 0.0
  0
LTYPE
  2
DASHED
  70
     0
  3

  72
     65
  73
     2
  40
0.7500000
  49
0.5000000
  49
-0.2500000
  0
LTYPE
  2
HIDDEN
  70
     0
  3

  72
     65
  73
     2
  40
0.3750000
  49
0.2500000
  49
-0.1250000
  0
LTYPE
  2
CENTER
  70
     0
  3

  72
     65
  73
     4
  40
2
  49
1.25
  49
-0.2500000
  49
0.2500000
  49
-0.2500000
  0
LTYPE
  2
PHANTOM
  70
     0
  3

  72
     65
  73
     6
  40
2.5
  49
1.25
  49
-0.2500000
  49
0.2500000
  49
-0.2500000
  49
0.2500000
  49
-0.2500000
  0
LTYPE
  2
DOT
  70
     0
  3

  72
     65
  73
     2
  40
0.2500000
  49
0.0
  49
-0.2500000
  0
LTYPE
  2
DASHDOT
  70
     0
  3

  72
     65
  73
     4
  40
1.0000000
  49
0.5000000
  49
-0.2500000
  49
0.0
  49
-0.2500000
  0
LTYPE
  2
BORDER
  70
     0
  3

  72
     65
  73
     6
  40
1.75
  49
0.5000000
  49
-0.2500000
  49
0.5000000
  49
-0.2500000
  49
0.0
  49
-0.2500000
  0
LTYPE
  2
DIVIDE
  70
     0
  3

  72
     65
  73
     6
  40
1.25
  49
0.5000000
  49
-0.2500000
  49
0.0
  49
-0.2500000
  49
0.0
  49
-0.2500000
  0
ENDTAB
  0
TABLE
  2
STYLE
 70
    2
  0
STYLE
  2
STANDARD
 70
    64
 40
 0.0
 41
 1.0
 50
 0.0
 71
    0
 42
 0.2
  3
Arial
  4

  0
ENDTAB
  0
TABLE
  2
VPORT
 70
     1
  0
VPORT
  2
*ACTIVE
 70
     0
 10
0.0
 20
0.0
 11
1.0
 21
1.0
 12
2.281323
 22
14.37967
 13
0.0
 23
0.0
 14
0.05
 24
0.05
 15
0.0
 25
0.0
 16
0.0
 26
0.0
 36
1.0
 17
18.519313
 27
8.526316
 37
0.0
 40
7.381408
 41
1.380723
 42
50.0
 43
-1.104533
 44
-1.104533
 50
0.0
 51
0.0
 71
     0
 72
   100
 73
     1
 74
     1
 75
     0
 76
     0
 77
     0
 78
     0
  0
ENDTAB
  0
TABLE
  2
LAYER
 70
     3
  0
LAYER
  2
0
 70
    64
 62
     7
  6
CONTINUOUS
  0
ENDTAB
  0
TABLE
  2
VIEW
 70
     0
  0
ENDTAB
  0
TABLE
  2
UCS
 70
     0
  0
ENDTAB
  0
TABLE
  2
DWGMGR
 70
     0
  0
ENDTAB
  0
ENDSEC
  0
SECTION
  2
BLOCKS
  0
ENDSEC
  0
SECTION
  2
ENTITIES
  0
LINE
  8
0
  62
    3
  10
0.0
  20
0.0
  30
0.0
  11
14.48229
  21
0.3236430
  31
0.0
  0
LINE
  8
0
  62
    1
  10
14.48229
  20
0.3236430
  30
0.0
  11
14.48229
  21
19.67636
  31
0.0
  0
LINE
  8
0
  62
    1
  10
14.48229
  20
19.67636
  30
0.0
  11
15.4186
  21
19.67636
  31
0.0
  0
LINE
  8
0
  62
    1
  10
15.4186
  20
19.67636
  30
0.0
  11
15.4186
  21
11.70195
  31
0.0
  0
LINE
  8
0
  62
    1
  10
15.4186
  20
11.70195
  30
0.0
  11
19.06437
  21
11.70195
  31
0.0
  0
LINE
  8
0
  62
    1
  10
19.06437
  20
11.70195
  30
0.0
  11
19.06437
  21
19.67636
  31
0.0
  0
LINE
  8
0
  62
    1
  10
19.06437
  20
19.67636
  30
0.0
  11
20
  21
19.67636
  31
0.0
  0
LINE
  8
0
  62
    1
  10
20
  20
19.67636
  30
0.0
  11
20
  21
0.3236430
  31
0.0
  0
LINE
  8
0
  62
    1
  10
20
  20
0.3236430
  30
0.0
  11
19.06437
  21
0.3236430
  31
0.0
  0
LINE
  8
0
  62
    1
  10
19.06437
  20
0.3236430
  30
0.0
  11
19.06437
  21
9.430802
  31
0.0
  0
LINE
  8
0
  62
    1
  10
19.06437
  20
9.430802
  30
0.0
  11
15.4186
  21
9.430802
  31
0.0
  0
LINE
  8
0
  62
    1
  10
15.4186
  20
9.430802
  30
0.0
  11
15.4186
  21
0.3236430
  31
0.0
  0
LINE
  8
0
  62
    1
  10
15.4186
  20
0.3236430
  30
0.0
  11
14.48229
  21
0.3236430
  31
0.0
  0
LINE
  8
0
  62
    3
  10
14.48229
  20
0.3236430
  30
0.0
  11
0.0
  21
0.3236430
  31
0.0
  0
LINE
  8
0
  62
    1
  10
0.0
  20
0.3236430
  30
0.0
  11
2.70604
  21
19.67636
  31
0.0
  0
LINE
  8
0
  62
    1
  10
2.70604
  20
19.67636
  30
0.0
  11
3.731522
  21
19.67636
  31
0.0
  0
LINE
  8
0
  62
    1
  10
3.731522
  20
19.67636
  30
0.0
  11
6.604932
  21
0.3236430
  31
0.0
  0
LINE
  8
0
  62
    1
  10
6.604932
  20
0.3236430
  30
0.0
  11
5.541723
  21
0.3236430
  31
0.0
  0
LINE
  8
0
  62
    1
  10
5.541723
  20
0.3236430
  30
0.0
  11
4.726138
  21
6.188729
  31
0.0
  0
LINE
  8
0
  62
    1
  10
4.726138
  20
6.188729
  30
0.0
  11
1.754639
  21
6.188729
  31
0.0
  0
LINE
  8
0
  62
    1
  10
1.754639
  20
6.188729
  30
0.0
  11
0.9898140
  21
0.3236430
  31
0.0
  0
LINE
  8
0
  62
    1
  10
0.9898140
  20
0.3236430
  30
0.0
  11
0.0
  21
0.3236430
  31
0.0
  0
LINE
  8
0
  62
    3
  10
0.0
  20
0.3236430
  30
0.0
  11
2.029701
  21
8.269829
  31
0.0
  0
LINE
  8
0
  62
    1
  10
2.029701
  20
8.269829
  30
0.0
  11
4.433927
  21
8.269829
  31
0.0
  0
LINE
  8
0
  62
    1
  10
4.433927
  20
8.269829
  30
0.0
  11
3.697225
  21
13.63251
  31
0.0
  0
LINE
  8
0
  62
    1
  10
3.697225
  20
13.63251
  30
0.0
  11
3.493501
  21
15.16982
  31
0.0
  0
LINE
  8
0
  62
    1
  10
3.493501
  20
15.16982
  30
0.0
  11
3.325445
  21
16.51708
  31
0.0
  0
LINE
  8
0
  62
    1
  10
3.325445
  20
16.51708
  30
0.0
  11
3.191686
  21
17.67617
  31
0.0
  0
LINE
  8
0
  62
    1
  10
3.191686
  20
17.67617
  30
0.0
  11
3.083994
  21
16.42111
  31
0.0
  0
LINE
  8
0
  62
    1
  10
3.083994
  20
16.42111
  30
0.0
  11
2.953665
  21
15.17923
  31
0.0
  0
LINE
  8
0
  62
    1
  10
2.953665
  20
15.17923
  30
0.0
  11
2.802758
  21
13.94863
  31
0.0
  0
LINE
  8
0
  62
    1
  10
2.802758
  20
13.94863
  30
0.0
  11
2.029701
  21
8.269829
  31
0.0
  0
LINE
  8
0
  62
    3
  10
2.029701
  20
8.269829
  30
0.0
  11
7.302535
  21
6.538715
  31
0.0
  0
LINE
  8
0
  62
    1
  10
7.302535
  20
6.538715
  30
0.0
  11
8.179169
  21
6.755104
  31
0.0
  0
LINE
  8
0
  62
    1
  10
8.179169
  20
6.755104
  30
0.0
  11
8.239532
  21
5.840624
  31
0.0
  0
LINE
  8
0
  62
    1
  10
8.239532
  20
5.840624
  30
0.0
  11
8.336249
  21
5.040926
  31
0.0
  0
LINE
  8
0
  62
    1
  10
8.336249
  20
5.040926
  30
0.0
  11
8.470008
  21
4.35977
  31
0.0
  0
LINE
  8
0
  62
    1
  10
8.470008
  20
4.35977
  30
0.0
  11
8.650411
  21
3.776461
  31
0.0
  0
LINE
  8
0
  62
    1
  10
8.650411
  20
3.776461
  30
0.0
  11
8.88706
  21
3.270298
  31
0.0
  0
LINE
  8
0
  62
    1
  10
8.88706
  20
3.270298
  30
0.0
  11
9.179957
  21
2.846929
  31
0.0
  0
LINE
  8
0
  62
    1
  10
9.179957
  20
2.846929
  30
0.0
  11
9.513325
  21
2.525167
  31
0.0
  0
LINE
  8
0
  62
    1
  10
9.513325
  20
2.525167
  30
0.0
  11
9.87413
  21
2.333239
  31
0.0
  0
LINE
  8
0
  62
    1
  10
9.87413
  20
2.333239
  30
0.0
  11
10.26169
  21
2.269264
  31
0.0
  0
LINE
  8
0
  62
    1
  10
10.26169
  20
2.269264
  30
0.0
  11
10.60397
  21
2.318186
  31
0.0
  0
LINE
  8
0
  62
    1
  10
10.60397
  20
2.318186
  30
0.0
  11
10.91813
  21
2.463073
  31
0.0
  0
LINE
  8
0
  62
    1
  10
10.91813
  20
2.463073
  30
0.0
  11
11.20417
  21
2.707687
  31
0.0
  0
LINE
  8
0
  62
    1
  10
11.20417
  20
2.707687
  30
0.0
  11
11.45385
  21
3.035093
  31
0.0
  0
LINE
  8
0
  62
    1
  10
11.45385
  20
3.035093
  30
0.0
  11
11.65621
  21
3.435883
  31
0.0
  0
LINE
  8
0
  62
    1
  10
11.65621
  20
3.435883
  30
0.0
  11
11.8126
  21
3.908176
  31
0.0
  0
LINE
  8
0
  62
    1
  10
11.8126
  20
3.908176
  30
0.0
  11
11.92372
  21
4.431273
  31
0.0
  0
LINE
  8
0
  62
    1
  10
11.92372
  20
4.431273
  30
0.0
  11
11.99026
  21
4.984477
  31
0.0
  0
LINE
  8
0
  62
    1
  10
11.99026
  20
4.984477
  30
0.0
  11
12.01221
  21
5.565905
  31
0.0
  0
LINE
  8
0
  62
    1
  10
12.01221
  20
5.565905
  30
0.0
  11
11.99095
  21
6.145451
  31
0.0
  0
LINE
  8
0
  62
    1
  10
11.99095
  20
6.145451
  30
0.0
  11
11.92647
  21
6.672311
  31
0.0
  0
LINE
  8
0
  62
    1
  10
11.92647
  20
6.672311
  30
0.0
  11
11.81946
  21
7.150249
  31
0.0
  0
LINE
  8
0
  62
    1
  10
11.81946
  20
7.150249
  30
0.0
  11
11.66375
  21
7.577383
  31
0.0
  0
LINE
  8
0
  62
    1
  10
11.66375
  20
7.577383
  30
0.0
  11
11.4518
  21
7.957475
  31
0.0
  0
LINE
  8
0
  62
    1
  10
11.4518
  20
7.957475
  30
0.0
  11
11.18428
  21
8.288645
  31
0.0
  0
LINE
  8
0
  62
    1
  10
11.18428
  20
8.288645
  30
0.0
  11
10.91882
  21
8.529495
  31
0.0
  0
LINE
  8
0
  62
    1
  10
10.91882
  20
8.529495
  30
0.0
  11
10.49971
  21
8.84373
  31
0.0
  0
LINE
  8
0
  62
    1
  10
10.49971
  20
8.84373
  30
0.0
  11
9.92832
  21
9.233231
  31
0.0
  0
LINE
  8
0
  62
    1
  10
9.92832
  20
9.233231
  30
0.0
  11
9.344584
  21
9.652837
  31
0.0
  0
LINE
  8
0
  62
    1
  10
9.344584
  20
9.652837
  30
0.0
  11
8.891176
  21
10.05551
  31
0.0
  0
LINE
  8
0
  62
    1
  10
8.891176
  20
10.05551
  30
0.0
  11
8.567411
  21
10.44125
  31
0.0
  0
LINE
  8
0
  62
    1
  10
8.567411
  20
10.44125
  30
0.0
  11
8.259424
  21
10.96622
  31
0.0
  0
LINE
  8
0
  62
    1
  10
8.259424
  20
10.96622
  30
0.0
  11
8.009055
  21
11.56835
  31
0.0
  0
LINE
  8
0
  62
    1
  10
8.009055
  20
11.56835
  30
0.0
  11
7.815619
  21
12.24763
  31
0.0
  0
LINE
  8
0
  62
    1
  10
7.815619
  20
12.24763
  30
0.0
  11
7.678431
  21
12.99276
  31
0.0
  0
LINE
  8
0
  62
    1
  10
7.678431
  20
12.99276
  30
0.0
  11
7.596117
  21
13.7981
  31
0.0
  0
LINE
  8
0
  62
    1
  10
7.596117
  20
13.7981
  30
0.0
  11
7.56868
  21
14.65989
  31
0.0
  0
LINE
  8
0
  62
    1
  10
7.56868
  20
14.65989
  30
0.0
  11
7.602291
  21
15.61577
  31
0.0
  0
LINE
  8
0
  62
    1
  10
7.602291
  20
15.61577
  30
0.0
  11
7.703125
  21
16.53025
  31
0.0
  0
LINE
  8
0
  62
    1
  10
7.703125
  20
16.53025
  30
0.0
  11
7.871866
  21
17.40145
  31
0.0
  0
LINE
  8
0
  62
    1
  10
7.871866
  20
17.40145
  30
0.0
  11
8.104401
  21
18.18421
  31
0.0
  0
LINE
  8
0
  62
    1
  10
8.104401
  20
18.18421
  30
0.0
  11
8.400042
  21
18.82962
  31
0.0
  0
LINE
  8
0
  62
    1
  10
8.400042
  20
18.82962
  30
0.0
  11
8.756732
  21
19.33954
  31
0.0
  0
LINE
  8
0
  62
    1
  10
8.756732
  20
19.33954
  30
0.0
  11
9.159379
  21
19.70646
  31
0.0
  0
LINE
  8
0
  62
    1
  10
9.159379
  20
19.70646
  30
0.0
  11
9.590837
  21
19.92662
  31
0.0
  0
LINE
  8
0
  62
    1
  10
9.590837
  20
19.92662
  30
0.0
  11
10.0511
  21
20
  31
0.0
  0
LINE
  8
0
  62
    1
  10
10.0511
  20
20
  30
0.0
  11
10.55321
  21
19.92285
  31
0.0
  0
LINE
  8
0
  62
    1
  10
10.55321
  20
19.92285
  30
0.0
  11
11.01417
  21
19.69141
  31
0.0
  0
LINE
  8
0
  62
    1
  10
11.01417
  20
19.69141
  30
0.0
  11
11.43396
  21
19.30756
  31
0.0
  0
LINE
  8
0
  62
    1
  10
11.43396
  20
19.30756
  30
0.0
  11
11.803
  21
18.77129
  31
0.0
  0
LINE
  8
0
  62
    1
  10
11.803
  20
18.77129
  30
0.0
  11
12.10961
  21
18.09201
  31
0.0
  0
LINE
  8
0
  62
    1
  10
12.10961
  20
18.09201
  30
0.0
  11
12.35587
  21
17.26597
  31
0.0
  0
LINE
  8
0
  62
    1
  10
12.35587
  20
17.26597
  30
0.0
  11
12.53764
  21
16.32891
  31
0.0
  0
LINE
  8
0
  62
    1
  10
12.53764
  20
16.32891
  30
0.0
  11
12.65288
  21
15.31094
  31
0.0
  0
LINE
  8
0
  62
    1
  10
12.65288
  20
15.31094
  30
0.0
  11
12.70227
  21
14.21583
  31
0.0
  0
LINE
  8
0
  62
    1
  10
12.70227
  20
14.21583
  30
0.0
  11
11.80506
  21
14.02578
  31
0.0
  0
LINE
  8
0
  62
    1
  10
11.80506
  20
14.02578
  30
0.0
  11
11.71863
  21
15.14724
  31
0.0
  0
LINE
  8
0
  62
    1
  10
11.71863
  20
15.14724
  30
0.0
  11
11.55606
  21
16.07113
  31
0.0
  0
LINE
  8
0
  62
    1
  10
11.55606
  20
16.07113
  30
0.0
  11
11.31667
  21
16.79368
  31
0.0
  0
LINE
  8
0
  62
    1
  10
11.31667
  20
16.79368
  30
0.0
  11
10.99496
  21
17.31301
  31
0.0
  0
LINE
  8
0
  62
    1
  10
10.99496
  20
17.31301
  30
0.0
  11
10.58545
  21
17.62536
  31
0.0
  0
LINE
  8
0
  62
    1
  10
10.58545
  20
17.62536
  30
0.0
  11
10.08677
  21
17.72886
  31
0.0
  0
LINE
  8
0
  62
    1
  10
10.08677
  20
17.72886
  30
0.0
  11
9.573688
  21
17.63477
  31
0.0
  0
LINE
  8
0
  62
    1
  10
9.573688
  20
17.63477
  30
0.0
  11
9.162124
  21
17.35065
  31
0.0
  0
LINE
  8
0
  62
    1
  10
9.162124
  20
17.35065
  30
0.0
  11
8.852763
  21
16.87835
  31
0.0
  0
LINE
  8
0
  62
    1
  10
8.852763
  20
16.87835
  30
0.0
  11
8.637378
  21
16.27058
  31
0.0
  0
LINE
  8
0
  62
    1
  10
8.637378
  20
16.27058
  30
0.0
  11
8.50842
  21
15.58754
  31
0.0
  0
LINE
  8
0
  62
    1
  10
8.50842
  20
15.58754
  30
0.0
  11
8.465206
  21
14.82548
  31
0.0
  0
LINE
  8
0
  62
    1
  10
8.465206
  20
14.82548
  30
0.0
  11
8.495388
  21
14.17067
  31
0.0
  0
LINE
  8
0
  62
    1
  10
8.495388
  20
14.17067
  30
0.0
  11
8.587304
  21
13.59865
  31
0.0
  0
LINE
  8
0
  62
    1
  10
8.587304
  20
13.59865
  30
0.0
  11
8.739583
  21
13.10942
  31
0.0
  0
LINE
  8
0
  62
    1
  10
8.739583
  20
13.10942
  30
0.0
  11
9.015331
  21
12.65594
  31
0.0
  0
LINE
  8
0
  62
    1
  10
9.015331
  20
12.65594
  30
0.0
  11
9.485202
  21
12.19682
  31
0.0
  0
LINE
  8
0
  62
    1
  10
9.485202
  20
12.19682
  30
0.0
  11
10.14714
  21
11.72829
  31
0.0
  0
LINE
  8
0
  62
    1
  10
10.14714
  20
11.72829
  30
0.0
  11
10.8269
  21
11.27858
  31
0.0
  0
LINE
  8
0
  62
    1
  10
10.8269
  20
11.27858
  30
0.0
  11
11.34685
  21
10.8665
  31
0.0
  0
LINE
  8
0
  62
    1
  10
11.34685
  20
10.8665
  30
0.0
  11
11.70834
  21
10.49581
  31
0.0
  0
LINE
  8
0
  62
    1
  10
11.70834
  20
10.49581
  30
0.0
  11
12.08218
  21
9.931319
  31
0.0
  0
LINE
  8
0
  62
    1
  10
12.08218
  20
9.931319
  30
0.0
  11
12.38468
  21
9.274626
  31
0.0
  0
LINE
  8
0
  62
    1
  10
12.38468
  20
9.274626
  30
0.0
  11
12.61584
  21
8.527613
  31
0.0
  0
LINE
  8
0
  62
    1
  10
12.61584
  20
8.527613
  30
0.0
  11
12.77841
  21
7.692163
  31
0.0
  0
LINE
  8
0
  62
    1
  10
12.77841
  20
7.692163
  30
0.0
  11
12.8765
  21
6.775802
  31
0.0
  0
LINE
  8
0
  62
    1
  10
12.8765
  20
6.775802
  30
0.0
  11
12.90874
  21
5.780412
  31
0.0
  0
LINE
  8
0
  62
    1
  10
12.90874
  20
5.780412
  30
0.0
  11
12.87307
  21
4.773732
  31
0.0
  0
LINE
  8
0
  62
    1
  10
12.87307
  20
4.773732
  30
0.0
  11
12.76606
  21
3.804686
  31
0.0
  0
LINE
  8
0
  62
    1
  10
12.76606
  20
3.804686
  30
0.0
  11
12.58703
  21
2.877035
  31
0.0
  0
LINE
  8
0
  62
    1
  10
12.58703
  20
2.877035
  30
0.0
  11
12.34146
  21
2.034058
  31
0.0
  0
LINE
  8
0
  62
    1
  10
12.34146
  20
2.034058
  30
0.0
  11
12.03279
  21
1.328441
  31
0.0
  0
LINE
  8
0
  62
    1
  10
12.03279
  20
1.328441
  30
0.0
  11
11.66238
  21
0.7564210
  31
0.0
  0
LINE
  8
0
  62
    1
  10
11.66238
  20
0.7564210
  30
0.0
  11
11.24327
  21
0.3349330
  31
0.0
  0
LINE
  8
0
  62
    1
  10
11.24327
  20
0.3349330
  30
0.0
  11
10.79123
  21
0.0846740
  31
0.0
  0
LINE
  8
0
  62
    1
  10
10.79123
  20
0.0846740
  30
0.0
  11
10.3049
  21
0.0
  31
0.0
  0
LINE
  8
0
  62
    1
  10
10.3049
  20
0.0
  30
0.0
  11
9.701959
  21
0.0846740
  31
0.0
  0
LINE
  8
0
  62
    1
  10
9.701959
  20
0.0846740
  30
0.0
  11
9.168296
  21
0.3386960
  31
0.0
  0
LINE
  8
0
  62
    1
  10
9.168296
  20
0.3386960
  30
0.0
  11
8.702542
  21
0.7639480
  31
0.0
  0
LINE
  8
0
  62
    1
  10
8.702542
  20
0.7639480
  30
0.0
  11
8.302638
  21
1.358547
  31
0.0
  0
LINE
  8
0
  62
    1
  10
8.302638
  20
1.358547
  30
0.0
  11
7.965155
  21
2.126258
  31
0.0
  0
LINE
  8
0
  62
    1
  10
7.965155
  20
2.126258
  30
0.0
  11
7.689405
  21
3.065199
  31
0.0
  0
LINE
  8
0
  62
    1
  10
7.689405
  20
3.065199
  30
0.0
  11
7.482937
  21
4.133973
  31
0.0
  0
LINE
  8
0
  62
    1
  10
7.482937
  20
4.133973
  30
0.0
  11
7.353981
  21
5.291184
  31
0.0
  0
LINE
  8
0
  62
    1
  10
7.353981
  20
5.291184
  30
0.0
  11
7.302535
  21
6.538715
  31
0.0
  0
LINE
  8
0
  62
    3
  10
7.302535
  20
6.538715
  30
0.0
  11
0.0
  21
0.0
  31
0.0
  0
ENDSEC
  0
EOF
